# xmcd CD database file
#
# Track frame offsets:
#	150
#	14235
#	25740
#	45787
#	75888
#	94548
#	104426
#	119973
#	132363
#	144825
#	159000
#	171780
#	188737
#	201806
#
# Disc length: 2894 seconds
#
# Revision: 1
# Processed by: cddbd v1.5.1PL0 Copyright (c) Steve Scherf et al.
# Submitted via: CDex 1.51
#
DISCID=a90b4c0e
DTITLE=Brian Evans - Maybe This Time
DYEAR=1997
DGENRE=Jazz
TTITLE0=Learnin' The Blues
TTITLE1=Nice n' Easy
TTITLE2=Sentimental Journey
TTITLE3=Summertime
TTITLE4=Mack The Knife
TTITLE5=Young At Heart
TTITLE6=Beyond The Sea
TTITLE7=Summerwind
TTITLE8=I Love Ya
TTITLE9=Maybe This Time
TTITLE10=Love and Marriage
TTITLE11=I've Got You Under My Skin
TTITLE12=The Tender Trap
TTITLE13=Smile
EXTD=YEAR: 1997
EXTT0=
EXTT1=
EXTT2=
EXTT3=
EXTT4=
EXTT5=
EXTT6=
EXTT7=
EXTT8=
EXTT9=
EXTT10=
EXTT11=
EXTT12=
EXTT13=
PLAYORDER=
